<svg width="32" height="32" viewBox="0 0 32 32" fill="none" xmlns="http://www.w3.org/2000/svg">
<circle cx="16" cy="16" r="16" fill="#681CFF"/>
<path d="M19.44 8.54C20.3067 8.87333 20.9467 9.28667 21.36 9.78C21.7867 10.26 22.0133 10.78 22.04 11.34C22.0667 11.8867 21.92 12.42 21.6 12.94C21.4267 13.22 21.1733 13.6 20.84 14.08C20.5067 14.56 20.1133 15.1133 19.66 15.74C19.2067 16.3533 18.82 17.0733 18.5 17.9C18.18 18.7133 17.96 19.5 17.84 20.26C17.8267 20.8067 17.82 21.34 17.82 21.86C17.8333 22.38 17.8667 22.7667 17.92 23.02C17.96 23.26 18.0667 23.44 18.24 23.56C18.4133 23.6667 18.5 23.72 18.5 23.72C18.5 23.72 18.46 23.82 18.38 24.02C18.3133 24.2067 18.1533 24.4133 17.9 24.64C17.66 24.8667 17.28 25.0333 16.76 25.14C16.2533 25.2333 15.7867 25.1933 15.36 25.02C14.9467 24.8467 14.6267 24.5467 14.4 24.12C14.1733 23.6933 14.0867 23.1733 14.14 22.56C14.1533 22.44 14.16 22.2267 14.16 21.92C14.16 21.6 14.16 21.24 14.16 20.84C14.16 20.44 14.1533 20.0533 14.14 19.68C14.14 19.4 14.0933 19.0467 14 18.62C13.9067 18.1933 13.78 17.74 13.62 17.26C13.4733 16.78 13.3 16.3267 13.1 15.9C12.9133 15.46 12.72 15.0867 12.52 14.78L9.66 10.44C9.48667 10.1733 9.3 9.96 9.1 9.8C8.9 9.62667 8.8 9.54 8.8 9.54C8.93333 9.44667 9.18 9.34 9.54 9.22C9.91333 9.1 10.3333 9.01333 10.8 8.96C11.2667 8.89333 11.72 8.90667 12.16 9C12.6 9.08 12.96 9.29333 13.24 9.64C13.36 9.77333 13.52 9.99333 13.72 10.3C13.9333 10.5933 14.1467 10.9 14.36 11.22C14.5733 11.5267 14.7267 11.76 14.82 11.92C14.98 12.1467 15.18 12.3933 15.42 12.66C15.6733 12.9133 16.0267 13.0533 16.48 13.08C16.6667 13.0933 16.8467 13.06 17.02 12.98C17.2067 12.8867 17.3667 12.7733 17.5 12.64C17.6467 12.4933 17.82 12.2333 18.02 11.86C18.22 11.4733 18.4 11.14 18.56 10.86C18.8 10.4333 19 10.0067 19.16 9.58C19.3333 9.15333 19.4267 8.80667 19.44 8.54Z" fill="white"/>
</svg>
